<svg width="172" height="30" viewBox="0 0 172 30" fill="none" xmlns="http://www.w3.org/2000/svg">
<path d="M0 -0.000488281H29.7791V15.0858C29.7791 18.9545 27.7367 22.5211 24.4089 24.4626L14.8967 29.9995L5.38452 24.4626C2.05669 22.5355 0.0142823 18.9545 0.0142823 15.0858V-0.000488281H0Z" fill="#B0B5C1"/>
<path fill-rule="evenodd" clip-rule="evenodd" d="M8.1748 7.93921V12.6276C8.81752 11.9085 9.97441 11.4196 11.2884 11.4196H12.7309V16.8702C12.7309 18.3227 12.3453 19.5883 11.7597 20.293H18.0155C17.4299 19.5883 17.0443 18.3227 17.0443 16.8702V11.4196H18.4868C19.8151 11.4196 20.972 11.9085 21.6004 12.6276V7.93921H8.1748Z" fill="#181A21"/>
<path d="M164.473 7.23389V8.48508C169.186 8.58576 172 10.5848 172 14.1083C172 17.6318 169.186 19.4726 164.473 19.5877V20.8389H160.745V19.5877C156.061 19.487 153.247 17.6462 153.247 14.1083C153.247 10.5848 156.061 8.58576 160.745 8.48508V7.23389H164.473ZM160.745 16.9415V11.1601C158.175 11.2607 157.032 12.4544 157.032 14.1227C157.032 15.7766 158.175 16.8408 160.745 16.9415ZM164.473 11.1601V16.9415C167.073 16.8408 168.187 15.7766 168.187 14.1083C168.187 12.4544 167.087 11.2607 164.473 11.1601Z" fill="white"/>
<path d="M144.532 7.23425V8.48545C149.245 8.58612 152.059 10.5852 152.059 14.1087C152.059 17.6321 149.245 19.473 144.532 19.588V20.8392H140.804V19.588C136.119 19.4874 133.306 17.6465 133.306 14.1087C133.306 10.5852 136.119 8.58612 140.804 8.48545V7.23425H144.532ZM140.79 16.9418V11.1604C138.219 11.2611 137.076 12.4548 137.076 14.123C137.091 15.7769 138.219 16.8412 140.79 16.9418ZM144.532 11.1604V16.9418C147.131 16.8412 148.245 15.7769 148.245 14.1087C148.245 12.4548 147.131 11.2611 144.532 11.1604Z" fill="white"/>
<path d="M124.076 7.6084C129.075 7.6084 132.089 10.456 132.089 14.1376C132.089 17.8193 129.075 20.6669 124.076 20.6669C119.049 20.6669 116.035 17.8193 116.035 14.1376C116.049 10.456 119.063 7.6084 124.076 7.6084ZM124.076 17.6611C126.547 17.6611 128.175 16.1511 128.175 14.1376C128.175 12.1098 126.547 10.6429 124.076 10.6429C121.577 10.6429 119.977 12.1242 119.977 14.1376C119.977 16.1654 121.577 17.6611 124.076 17.6611Z" fill="white"/>
<path d="M106.971 15.6188H105.943V20.2928H102.215V7.95337H105.943V12.5986H106.971L111.484 7.95337H116.169L110.199 13.8498L116.412 20.2784H111.441L106.971 15.6188Z" fill="white"/>
<path d="M94.7553 20.2928H87.1855V7.95337H90.9276V11.2611H94.7696C95.6979 11.2611 96.6692 11.2899 97.4975 11.5919C99.2257 12.2391 100.311 13.6629 100.311 15.7194C100.311 17.8767 99.0543 19.4586 97.1119 20.0051C96.3692 20.2065 95.598 20.2928 94.7553 20.2928ZM94.0983 14.1662H90.899V17.3014H94.0983C94.741 17.3014 95.1552 17.3014 95.5694 17.1144C96.155 16.8556 96.5263 16.3091 96.5263 15.6619C96.5263 15.0435 96.1693 14.5258 95.5408 14.31C95.1124 14.1662 94.6125 14.1662 94.0983 14.1662Z" fill="white"/>
<path d="M80.618 15.6905H74.6194V20.2782H70.8916V7.93884H74.6194V12.4547H80.618V7.93884H84.3458V20.2782H80.618V15.6905Z" fill="white"/>
<path d="M58.2932 15.129L64.7346 7.93823H68.0339V20.2776H64.3061V13.0868L57.8647 20.2776H54.5654V7.93823H58.2932V15.129Z" fill="white"/>
<path d="M47.7208 20.2925H43.8502V11.2465H38.5371V7.95312H53.0196V11.2465H47.7208V20.2925Z" fill="white"/>
</svg>
