<svg width="115" height="20" viewBox="0 0 115 20" fill="none" xmlns="http://www.w3.org/2000/svg">
<path d="M0 0H19.9104V10.0575C19.9104 12.6366 18.5449 15.0144 16.3199 16.3087L9.96 20L3.60011 16.3087C1.37511 15.024 0.00954923 12.6366 0.00954923 10.0575V0H0Z" fill="#B0B5C1"/>
<path fill-rule="evenodd" clip-rule="evenodd" d="M5.46582 5.29297V8.41857C5.89554 7.93918 6.66904 7.6132 7.54759 7.6132H8.51207V11.2469C8.51207 12.2153 8.25424 13.059 7.86271 13.5288H12.0453C11.6538 13.059 11.396 12.2153 11.396 11.2469V7.6132H12.3605C13.2486 7.6132 14.0221 7.93918 14.4422 8.41857V5.29297H5.46582Z" fill="#181A21"/>
<path d="M109.968 4.823V5.65713C113.119 5.72424 115 7.05694 115 9.40593C115 11.7549 113.119 12.9822 109.968 13.0589V13.893H107.475V13.0589C104.343 12.9917 102.462 11.7645 102.462 9.40593C102.462 7.05694 104.343 5.72424 107.475 5.65713V4.823H109.968ZM107.475 11.2947V7.44045C105.756 7.50756 104.992 8.30334 104.992 9.41552C104.992 10.5181 105.756 11.2276 107.475 11.2947ZM109.968 7.44045V11.2947C111.706 11.2276 112.451 10.5181 112.451 9.40593C112.451 8.30334 111.715 7.50756 109.968 7.44045Z" fill="white"/>
<path d="M96.6347 4.82324V5.65737C99.786 5.72449 101.667 7.05718 101.667 9.40618C101.667 11.7552 99.786 12.9824 96.6347 13.0591V13.8932H94.1423V13.0591C91.0101 12.992 89.1289 11.7648 89.1289 9.40618C89.1289 7.05718 91.0101 5.72449 94.1423 5.65737V4.82324H96.6347ZM94.1328 11.295V7.44069C92.4139 7.50781 91.6499 8.30359 91.6499 9.41576C91.6595 10.5184 92.4139 11.2278 94.1328 11.295ZM96.6347 7.44069V11.295C98.3727 11.2278 99.1176 10.5184 99.1176 9.40618C99.1176 8.30359 98.3727 7.50781 96.6347 7.44069Z" fill="white"/>
<path d="M82.9583 5.07275C86.3006 5.07275 88.3155 6.97112 88.3155 9.42558C88.3155 11.88 86.3006 13.7784 82.9583 13.7784C79.5969 13.7784 77.582 11.88 77.582 9.42558C77.5916 6.97112 79.6065 5.07275 82.9583 5.07275ZM82.9583 11.7746C84.6104 11.7746 85.699 10.7679 85.699 9.42558C85.699 8.07371 84.6104 7.09576 82.9583 7.09576C81.2872 7.09576 80.2177 8.0833 80.2177 9.42558C80.2177 10.7775 81.2872 11.7746 82.9583 11.7746Z" fill="white"/>
<path d="M71.5217 10.413H70.8342V13.529H68.3418V5.30273H70.8342V8.39957H71.5217L74.5393 5.30273H77.6715L73.6799 9.2337L77.8339 13.5194H74.5107L71.5217 10.413Z" fill="white"/>
<path d="M63.3541 13.529H58.293V5.30273H60.7949V7.50791H63.3637C63.9844 7.50791 64.6338 7.52709 65.1876 7.72843C66.3431 8.15988 67.0688 9.10906 67.0688 10.4801C67.0688 11.9183 66.2285 12.9729 64.9298 13.3373C64.4332 13.4715 63.9176 13.529 63.3541 13.529ZM62.9149 9.44463H60.7758V11.5348H62.9149C63.3446 11.5348 63.6215 11.5348 63.8985 11.4101C64.29 11.2375 64.5383 10.8732 64.5383 10.4418C64.5383 10.0295 64.2995 9.68433 63.8794 9.54051C63.5929 9.44463 63.2586 9.44463 62.9149 9.44463Z" fill="white"/>
<path d="M53.9016 10.4608H49.8908V13.5192H47.3984V5.29297H49.8908V8.30352H53.9016V5.29297H56.394V13.5192H53.9016V10.4608Z" fill="white"/>
<path d="M38.9758 10.0863L43.2826 5.29248H45.4885V13.5188H42.9961V8.72489L38.6893 13.5188H36.4834V5.29248H38.9758V10.0863Z" fill="white"/>
<path d="M31.9069 13.5288H29.319V7.49808H25.7666V5.30249H35.4497V7.49808H31.9069V13.5288Z" fill="white"/>
</svg>
